<svg id="icons" xmlns="http://www.w3.org/2000/svg" viewBox="0 0 64 64"><title>sunflower</title><g id="sunflower"><path d="M27.55,23.8l-6.16-13c-1.64-3.58-7.68-2.93-10.61,0s-3.38,8.72,0,10.6l13,6.12A9.34,9.34,0,0,1,27.55,23.8Z" fill="#fcc74f" stroke="#f9b623" stroke-miterlimit="10" stroke-width="2"/><path d="M29.39,23a8.44,8.44,0,0,1,5.26,0L39.5,9.5C40.87,5.81,36.14,2,32,2s-8.55,3.78-7.5,7.5Z" fill="#fcc74f" stroke="#f9b623" stroke-miterlimit="10" stroke-width="2"/><path d="M53.21,10.78c-2.93-2.93-8.72-3.38-10.6,0l-6.12,13a9.34,9.34,0,0,1,3.71,3.73l13-6.16C56.8,19.76,56.14,13.71,53.21,10.78Z" fill="#fcc74f" stroke="#f9b623" stroke-miterlimit="10" stroke-width="2"/><path d="M54.5,24.5,41,29.39a8.43,8.43,0,0,1,0,5.26L54.5,39.5C58.19,40.88,62,36.14,62,32S58.22,23.44,54.5,24.5Z" fill="#fcc74f" stroke="#f9b623" stroke-miterlimit="10" stroke-width="2"/><path d="M53.22,42.61l-13-6.12a9.35,9.35,0,0,1-3.73,3.72l6.16,13c1.63,3.59,7.68,2.93,10.6,0S56.59,44.49,53.22,42.61Z" fill="#fcc74f" stroke="#f9b623" stroke-miterlimit="10" stroke-width="2"/><path d="M34.61,41a8.44,8.44,0,0,1-5.26,0L24.5,54.5C23.12,58.19,27.86,62,32,62s8.55-3.78,7.5-7.5Z" fill="#fcc74f" stroke="#f9b623" stroke-miterlimit="10" stroke-width="2"/><path d="M23.8,36.45l-13,6.16c-3.58,1.63-2.93,7.67,0,10.6s8.72,3.38,10.6,0l6.12-13A9.35,9.35,0,0,1,23.8,36.45Z" fill="#fcc74f" stroke="#f9b623" stroke-miterlimit="10" stroke-width="2"/><path d="M22.62,32a9.28,9.28,0,0,1,.43-2.65L9.5,24.5C5.81,23.13,2,27.86,2,32s3.78,8.55,7.5,7.5L23,34.61A9.33,9.33,0,0,1,22.62,32Z" fill="#fcc74f" stroke="#f9b623" stroke-miterlimit="10" stroke-width="2"/><path d="M41.75,34.29a10,10,0,0,0-12-12,9.92,9.92,0,0,0-7.46,7.46,10,10,0,0,0,12,12A9.92,9.92,0,0,0,41.75,34.29Z" fill="#826458" stroke="#70564c" stroke-miterlimit="10" stroke-width="2"/><line x1="31" y1="25" x2="33" y2="25" fill="none" stroke="#a3796a" stroke-miterlimit="10" stroke-width="2"/><line x1="31" y1="32" x2="33" y2="32" fill="none" stroke="#a3796a" stroke-miterlimit="10" stroke-width="2"/><line x1="31" y1="39" x2="33" y2="39" fill="none" stroke="#a3796a" stroke-miterlimit="10" stroke-width="2"/><line x1="27" y1="28" x2="29" y2="28" fill="none" stroke="#a3796a" stroke-miterlimit="10" stroke-width="2"/><line x1="35" y1="28" x2="37" y2="28" fill="none" stroke="#a3796a" stroke-miterlimit="10" stroke-width="2"/><line x1="27" y1="36" x2="29" y2="36" fill="none" stroke="#a3796a" stroke-miterlimit="10" stroke-width="2"/><line x1="35" y1="36" x2="37" y2="36" fill="none" stroke="#a3796a" stroke-miterlimit="10" stroke-width="2"/><line x1="24" y1="32" x2="26" y2="32" fill="none" stroke="#a3796a" stroke-miterlimit="10" stroke-width="2"/><line x1="38" y1="32" x2="40" y2="32" fill="none" stroke="#a3796a" stroke-miterlimit="10" stroke-width="2"/></g></svg>